<svg width="282" height="298" viewBox="0 0 282 298" fill="none" xmlns="http://www.w3.org/2000/svg">
<path d="M70.7363 292.477V278.336H75.541C78.8516 278.336 80.3652 280.309 80.3652 282.828C80.3652 285.338 78.8516 287.34 75.5605 287.34H72.4941V292.477H70.7363ZM72.4941 285.777H75.4824C77.7383 285.777 78.6172 284.508 78.627 282.828C78.6172 281.139 77.7383 279.898 75.4629 279.898H72.4941V285.777ZM82.084 289.469C82.084 287.037 84.2324 286.48 86.0684 286.344C86.752 286.295 88.4609 286.197 88.9395 286.188V285.328C88.9395 283.98 88.1387 283.199 86.5371 283.199C85.1992 283.199 84.3887 283.814 84.1543 284.625H82.3965C82.6113 282.916 84.2715 281.734 86.6152 281.734C88.002 281.734 90.6094 282.145 90.5996 285.484V292.477H88.9395V291.031H88.8613C88.5098 291.744 87.543 292.721 85.6973 292.73C83.6855 292.721 82.084 291.539 82.084 289.469ZM83.7637 289.547C83.7734 290.67 84.7012 291.236 85.9902 291.227C87.8848 291.236 88.9395 289.967 88.9395 288.629V287.564C88.4414 287.594 86.7715 287.721 86.2637 287.75C84.7402 287.848 83.7734 288.385 83.7637 289.547ZM97.5918 296.676C95.0234 296.676 93.2852 295.553 93.0996 293.59H94.8574C95.082 294.674 96.0879 295.211 97.5918 295.211C99.4082 295.211 100.521 294.42 100.521 292.672V290.523H100.385C100.023 291.109 99.3496 292.311 97.2988 292.32C94.7207 292.311 92.7871 290.367 92.7871 287.027C92.7871 283.766 94.6523 281.734 97.3184 281.734C99.3789 281.734 100.043 282.984 100.424 283.551H100.561V281.871H102.201V292.77C102.191 295.504 100.18 296.676 97.5918 296.676ZM94.4863 287.086C94.4863 289.283 95.5215 290.816 97.5332 290.816C99.4766 290.816 100.551 289.42 100.561 287.086C100.551 284.811 99.5059 283.238 97.5332 283.238C95.4922 283.238 94.4863 284.947 94.4863 287.086ZM109.33 292.691C106.264 292.701 104.369 290.514 104.369 287.262C104.369 284 106.293 281.734 109.174 281.734C111.4 281.734 113.754 283.102 113.744 287.027V287.73H106.049C106.137 289.977 107.445 291.207 109.33 291.207C110.6 291.207 111.4 290.65 111.791 289.996H113.588C113.09 291.607 111.518 292.701 109.33 292.691ZM106.059 286.305H112.045C112.035 284.537 110.922 283.219 109.174 283.219C107.338 283.219 106.176 284.664 106.059 286.305ZM132.396 278.336V292.477H130.717L123.061 281.461H122.924V292.477H121.166V278.336H122.865L130.521 289.371H130.658V278.336H132.396ZM139.643 292.691C136.752 292.701 134.799 290.514 134.799 287.223C134.799 283.912 136.752 281.734 139.643 281.734C142.523 281.734 144.457 283.912 144.447 287.223C144.457 290.514 142.523 292.701 139.643 292.691ZM136.479 287.223C136.488 289.342 137.484 291.207 139.643 291.207C141.781 291.207 142.768 289.342 142.768 287.223C142.768 285.113 141.781 283.219 139.643 283.219C137.484 283.219 136.488 285.113 136.479 287.223ZM151.283 281.871V283.277H149.057V289.43C149.047 290.787 149.73 291.012 150.443 291.012C150.746 291.012 151.195 290.982 151.439 290.973V292.535C151.176 292.574 150.766 292.613 150.268 292.613C148.852 292.613 147.367 291.734 147.357 289.859V283.277H145.756V281.871H147.357V279.332H149.057V281.871H151.283ZM158.686 292.477V278.336H167.201V279.898H160.443V284.625H166.557V286.168H160.443V292.477H158.686ZM173.158 292.691C170.268 292.701 168.314 290.514 168.314 287.223C168.314 283.912 170.268 281.734 173.158 281.734C176.039 281.734 177.973 283.912 177.963 287.223C177.973 290.514 176.039 292.701 173.158 292.691ZM169.994 287.223C170.004 289.342 171 291.207 173.158 291.207C175.297 291.207 176.283 289.342 176.283 287.223C176.283 285.113 175.297 283.219 173.158 283.219C171 283.219 170.004 285.113 169.994 287.223ZM186.869 288.121V281.871H188.529V292.477H186.869V290.68H186.752C186.254 291.754 185.199 292.613 183.607 292.613C181.596 292.613 180.16 291.305 180.17 288.609V281.871H181.85V288.492C181.85 290.016 182.797 291.002 184.154 290.992C185.355 291.002 186.859 290.104 186.869 288.121ZM192.904 286.109V292.477H191.225V281.871H192.846V283.531H192.982C193.48 282.447 194.477 281.734 196.088 281.734C198.236 281.734 199.672 283.043 199.662 285.738V292.477H197.982V285.855C197.982 284.215 197.084 283.238 195.58 283.238C194.037 283.238 192.904 284.273 192.904 286.109ZM206.361 292.691C203.715 292.701 201.85 290.572 201.85 287.203C201.85 283.844 203.715 281.734 206.381 281.734C208.441 281.734 209.086 282.984 209.447 283.551H209.564V278.336H211.264V292.477H209.623V290.855H209.447C209.076 291.441 208.383 292.701 206.361 292.691ZM203.549 287.164C203.549 289.42 204.584 291.188 206.596 291.188C208.539 291.188 209.613 289.547 209.623 287.164C209.613 284.811 208.568 283.238 206.596 283.238C204.555 283.238 203.549 284.947 203.549 287.164Z" fill="#FBFBFB"/>
<g opacity="0.78">
<path d="M2.77344 197.585C11.9096 189.697 40.0368 173.922 79.4559 173.922C118.875 173.922 144.539 189.697 152.443 197.585" stroke="#D6D6D7" stroke-width="7"/>
<circle cx="271.057" cy="155.288" r="10.9442" fill="#D6D6D7"/>
<path d="M166.937 0L274.013 43.1853V257.928L266.914 261.478L149.781 0H166.937Z" fill="#D6D6D7"/>
<rect x="4" y="3" width="145.444" height="208.743" stroke="#D6D6D7" stroke-width="6"/>
<path d="M152.445 0L266.916 46.7347V261.478L152.445 214.743V0Z" fill="#222222"/>
<path d="M244.73 146.676C244.73 140.973 250.721 137.254 255.832 139.784C258.453 141.081 260.112 143.752 260.112 146.676V164.495C260.112 170.199 254.121 173.918 249.01 171.388C246.389 170.091 244.73 167.419 244.73 164.495V146.676Z" fill="#D6D6D7"/>
<path d="M38.9314 131.584L59.8555 110.66" stroke="#D6D6D7" stroke-width="7" stroke-linecap="round"/>
<path d="M71.2384 139.894L84.9833 128.616" stroke="#D6D6D7" stroke-width="7" stroke-linecap="round"/>
<path d="M30.6267 99.2789L41.9062 85.5352" stroke="#D6D6D7" stroke-width="7" stroke-linecap="round"/>
<path d="M60.3584 48.5078C66.1924 48.9602 73.4497 51.7384 81.1253 56.4293M47.2461 61.6201C48.0849 72.4378 56.9205 88.149 71.1183 102.347C90.9512 122.18 113.737 131.549 122.012 123.274C126.204 119.083 125.868 111.169 121.94 101.802C120.67 98.7741 119.025 95.5946 117.036 92.3399M92.6587 80.8081C81.2037 69.3532 78.816 63.1485 78.3629 60.6276C78.2037 59.7417 78.6308 58.9254 79.2671 58.289C88.6428 48.9133 103.846 48.9155 113.225 58.294L115.173 60.2421C124.551 69.6206 124.553 84.8239 115.178 94.1996C114.541 94.836 113.723 95.2629 112.837 95.1035C111.127 94.7956 107.722 93.5975 102.136 89.2858" stroke="#D6D6D7" stroke-width="7" stroke-linecap="round"/>
<path d="M86.618 95.5796C84.6353 97.5623 81.4207 97.5623 79.438 95.5796C77.4553 93.5969 77.4553 90.3823 79.438 88.3996C81.4207 86.4169 84.6353 86.4169 86.618 88.3996C88.6007 90.3823 88.6007 93.5969 86.618 95.5796Z" fill="#D6D6D7"/>
<path d="M72.258 74.0396C70.2753 76.0223 67.0607 76.0223 65.078 74.0396C63.0953 72.0568 63.0953 68.8422 65.078 66.8595C67.0607 64.8768 70.2753 64.8768 72.258 66.8595C74.2407 68.8422 74.2407 72.0568 72.258 74.0396Z" fill="#D6D6D7"/>
<path d="M108.158 109.94C106.175 111.922 102.961 111.922 100.978 109.94C98.9953 107.957 98.9953 104.742 100.978 102.76C102.961 100.777 106.175 100.777 108.158 102.76C110.141 104.742 110.141 107.957 108.158 109.94Z" fill="#D6D6D7"/>
<path d="M127.889 163.868C127.788 163.961 127.691 164.058 127.599 164.159C127.506 164.058 127.409 163.961 127.308 163.868C127.409 163.775 127.506 163.678 127.599 163.577C127.691 163.678 127.788 163.775 127.889 163.868Z" stroke="#D6D6D7" stroke-width="8"/>
<path d="M28.5025 69.2157C28.4018 69.3087 28.3048 69.4057 28.2118 69.5064C28.1188 69.4057 28.0218 69.3087 27.9211 69.2157C28.0218 69.1227 28.1188 69.0257 28.2118 68.925C28.3048 69.0257 28.4018 69.1227 28.5025 69.2157Z" stroke="#D6D6D7" stroke-width="8"/>
<mask id="path-15-inside-1_1319_3416" fill="white">
<path d="M98.4444 198.848C98.7152 199.535 99.6867 199.535 99.9575 198.848L101.142 195.846C101.224 195.637 101.39 195.471 101.6 195.388L104.602 194.204C105.288 193.933 105.288 192.962 104.602 192.691L101.6 191.507C101.39 191.424 101.224 191.258 101.142 191.049L99.9575 188.047C99.6867 187.36 98.7152 187.36 98.4444 188.047L97.2604 191.049C97.1777 191.258 97.0118 191.424 96.8022 191.507L93.8 192.691C93.1135 192.962 93.1135 193.933 93.8 194.204L96.8022 195.388C97.0118 195.471 97.1777 195.637 97.2604 195.846L98.4444 198.848Z"/>
</mask>
<path d="M98.4444 198.848C98.7152 199.535 99.6867 199.535 99.9575 198.848L101.142 195.846C101.224 195.637 101.39 195.471 101.6 195.388L104.602 194.204C105.288 193.933 105.288 192.962 104.602 192.691L101.6 191.507C101.39 191.424 101.224 191.258 101.142 191.049L99.9575 188.047C99.6867 187.36 98.7152 187.36 98.4444 188.047L97.2604 191.049C97.1777 191.258 97.0118 191.424 96.8022 191.507L93.8 192.691C93.1135 192.962 93.1135 193.933 93.8 194.204L96.8022 195.388C97.0118 195.471 97.1777 195.637 97.2604 195.846L98.4444 198.848Z" fill="#D6D6D7"/>
<path d="M96.8022 195.388L99.7373 187.946L96.8022 195.388ZM97.2604 195.846L104.702 192.911V192.911L97.2604 195.846ZM93.8 192.691L90.8649 185.249H90.8649L93.8 192.691ZM93.8 194.204L90.8649 201.646H90.8649L93.8 194.204ZM97.2604 191.049L104.702 193.984V193.984L97.2604 191.049ZM96.8022 191.507L99.7373 198.949L99.7373 198.949L96.8022 191.507ZM99.9575 188.047L107.4 185.111L107.4 185.111L99.9575 188.047ZM98.4444 188.047L91.0023 185.111L98.4444 188.047ZM101.6 191.507L98.6645 198.949L98.6645 198.949L101.6 191.507ZM101.142 191.049L93.6994 193.984L93.6994 193.984L101.142 191.049ZM104.602 194.204L107.537 201.646L107.537 201.646L104.602 194.204ZM104.602 192.691L107.537 185.249H107.537L104.602 192.691ZM101.142 195.846L93.6994 192.911L93.6994 192.911L101.142 195.846ZM101.6 195.388L98.6645 187.946H98.6645L101.6 195.388ZM99.9575 198.848L107.4 201.784V201.784L99.9575 198.848ZM98.4444 198.848L91.0023 201.784L91.0023 201.784L98.4444 198.848ZM92.5154 195.913L93.6994 192.911L108.584 198.781L107.4 201.784L92.5154 195.913ZM98.6645 187.946L101.667 186.762L107.537 201.646L104.535 202.83L98.6645 187.946ZM101.667 200.133L98.6645 198.949L104.535 184.065L107.537 185.249L101.667 200.133ZM93.6994 193.984L92.5154 190.982L107.4 185.111L108.584 188.114L93.6994 193.984ZM105.887 190.982L104.702 193.984L89.8183 188.114L91.0023 185.111L105.887 190.982ZM99.7373 198.949L96.7351 200.133L90.8649 185.249L93.8671 184.065L99.7373 198.949ZM96.7351 186.762L99.7373 187.946L93.8671 202.83L90.8649 201.646L96.7351 186.762ZM104.702 192.911L105.887 195.913L91.0023 201.784L89.8183 198.781L104.702 192.911ZM99.7373 187.946C102.009 188.842 103.807 190.64 104.702 192.911L89.8183 198.781C90.5488 200.634 92.0149 202.1 93.8671 202.83L99.7373 187.946ZM96.7351 200.133C102.802 197.74 102.802 189.155 96.7351 186.762L90.8649 201.646C83.4253 198.712 83.4252 188.183 90.8649 185.249L96.7351 200.133ZM104.702 193.984C103.807 196.255 102.009 198.053 99.7373 198.949L93.8671 184.065C92.0149 184.795 90.5488 186.261 89.8183 188.114L104.702 193.984ZM92.5154 190.982C94.908 197.048 103.494 197.048 105.887 190.982L91.0023 185.111C93.9365 177.672 104.465 177.672 107.4 185.111L92.5154 190.982ZM98.6645 198.949C96.3932 198.053 94.5952 196.255 93.6994 193.984L108.584 188.114C107.853 186.261 106.387 184.795 104.535 184.065L98.6645 198.949ZM101.667 186.762C95.6 189.155 95.6001 197.74 101.667 200.133L107.537 185.249C114.977 188.183 114.977 198.712 107.537 201.646L101.667 186.762ZM93.6994 192.911C94.5952 190.64 96.3932 188.842 98.6645 187.946L104.535 202.83C106.387 202.1 107.853 200.634 108.584 198.781L93.6994 192.911ZM107.4 201.784C104.465 209.223 93.9365 209.223 91.0023 201.784L105.887 195.913C103.494 189.847 94.908 189.847 92.5154 195.913L107.4 201.784Z" fill="#D6D6D7" mask="url(#path-15-inside-1_1319_3416)"/>
</g>
</svg>
