<svg width="61" height="175" viewBox="0 0 61 175" fill="none" xmlns="http://www.w3.org/2000/svg">
<path d="M2.19922 164.25V160.764L11.1641 146.789H16.7012V160.705H19.3965V164.25H16.7012V168H12.5117V164.25H2.19922ZM6.65234 160.705H12.5703V151.623H12.3652L6.65234 160.529V160.705ZM30.5 168.293C25.1826 168.293 21.9746 164.338 21.9746 157.395C21.9746 150.466 25.2119 146.496 30.5 146.496C35.7881 146.496 39.0254 150.466 39.0254 157.395C39.0254 164.367 35.8027 168.293 30.5 168.293ZM26.4863 157.395C26.457 162.287 28.0391 164.66 30.5 164.66C32.9609 164.66 34.5283 162.287 34.5137 157.395C34.5283 152.546 32.9463 150.114 30.5 150.1C28.0537 150.114 26.4863 152.546 26.4863 157.395ZM41.7207 164.25V160.764L50.6855 146.789H56.2227V160.705H58.918V164.25H56.2227V168H52.0332V164.25H41.7207ZM46.1738 160.705H52.0918V151.623H51.8867L46.1738 160.529V160.705Z" fill="#132F5C"/>
<path d="M35.0781 26.2969L34.3945 77.0781H26.1914L25.5078 26.2969H35.0781ZM24.043 91.2383C23.9453 87.8203 26.875 84.9883 30.293 84.9883C33.7598 84.9883 36.5918 87.8203 36.543 91.2383C36.5918 94.7051 33.7598 97.5371 30.293 97.5859C26.875 97.5371 23.9453 94.7051 24.043 91.2383Z" fill="#3E82F1"/>
</svg>
