<svg width="50" height="50" viewBox="0 0 50 50" fill="none" xmlns="http://www.w3.org/2000/svg">
<g id="camera">
<path id="Vector" d="M47.9166 39.5833C47.9166 40.6884 47.4776 41.7482 46.6962 42.5296C45.9148 43.311 44.855 43.75 43.7499 43.75H6.24992C5.14485 43.75 4.08504 43.311 3.30364 42.5296C2.52224 41.7482 2.08325 40.6884 2.08325 39.5833V16.6667C2.08325 15.5616 2.52224 14.5018 3.30364 13.7204C4.08504 12.939 5.14485 12.5 6.24992 12.5H14.5833L18.7499 6.25H31.2499L35.4166 12.5H43.7499C44.855 12.5 45.9148 12.939 46.6962 13.7204C47.4776 14.5018 47.9166 15.5616 47.9166 16.6667V39.5833Z" stroke="#A6A6A6" stroke-width="4" stroke-linecap="round" stroke-linejoin="round"/>
<path id="Vector_2" d="M25.0001 35.4167C29.6025 35.4167 33.3334 31.6857 33.3334 27.0833C33.3334 22.481 29.6025 18.75 25.0001 18.75C20.3977 18.75 16.6667 22.481 16.6667 27.0833C16.6667 31.6857 20.3977 35.4167 25.0001 35.4167Z" stroke="#A6A6A6" stroke-width="4" stroke-linecap="round" stroke-linejoin="round"/>
</g>
</svg>
