<svg width="50" height="50" viewBox="0 0 50 50" fill="none" xmlns="http://www.w3.org/2000/svg">
<g id="camera-off" clip-path="url(#clip0_473_194)">
<path id="Vector" d="M2.08337 2.0835L47.9167 47.9168" stroke="#A6A6A6" stroke-width="4" stroke-linecap="round" stroke-linejoin="round"/>
<path id="Vector_2" d="M43.75 43.75H6.25004C5.14497 43.75 4.08516 43.311 3.30376 42.5296C2.52236 41.7482 2.08337 40.6884 2.08337 39.5833V16.6667C2.08337 15.5616 2.52236 14.5018 3.30376 13.7204C4.08516 12.939 5.14497 12.5 6.25004 12.5H12.5M18.75 6.25H31.25L35.4167 12.5H43.75C44.8551 12.5 45.9149 12.939 46.6963 13.7204C47.4777 14.5018 47.9167 15.5616 47.9167 16.6667V36.125M31.8334 31.8333C31.1419 32.8438 30.2363 33.6896 29.1809 34.3104C28.1254 34.9311 26.9462 35.3117 25.727 35.425C24.5078 35.5383 23.2786 35.3815 22.1269 34.9658C20.9752 34.5501 19.9292 33.8858 19.0634 33.02C18.1976 32.1541 17.5332 31.1082 17.1175 29.9565C16.7019 28.8047 16.5451 27.5756 16.6584 26.3564C16.7717 25.1372 17.1522 23.9579 17.773 22.9025C18.3938 21.8471 19.2395 20.9415 20.25 20.25" stroke="#A6A6A6" stroke-width="4" stroke-linecap="round" stroke-linejoin="round"/>
</g>
<defs>
<clipPath id="clip0_473_194">
<rect width="50" height="50" fill="white"/>
</clipPath>
</defs>
</svg>
