<svg width="33" height="40" viewBox="0 0 33 40" fill="none" xmlns="http://www.w3.org/2000/svg">
<g clip-path="url(#clip0_1319_3454)">
<path d="M7.71 2H24.43C27.58 2 30.14 4.56 30.14 7.71V32.28C30.14 35.43 27.58 37.99 24.43 37.99H7.71C4.56 37.99 2 35.43 2 32.28V7.71C2 4.56 4.56 2 7.71 2Z" fill="#F2F3F4"/>
<path d="M24.44 4C26.49 4 28.15 5.66 28.15 7.71V32.29C28.15 34.34 26.49 36 24.44 36H7.71C5.66 36 4 34.34 4 32.29V7.71C4 5.66 5.66 4 7.71 4H24.43M24.43 0H7.71C3.46 0 0 3.46 0 7.71V32.29C0 36.54 3.46 40 7.71 40H24.43C28.68 40 32.14 36.54 32.14 32.29V7.71C32.14 3.46 28.68 0 24.43 0Z" fill="#231815"/>
<path d="M20.9592 2.68994H11.1792C10.3618 2.68994 9.69922 3.35256 9.69922 4.16994C9.69922 4.98732 10.3618 5.64994 11.1792 5.64994H20.9592C21.7766 5.64994 22.4392 4.98732 22.4392 4.16994C22.4392 3.35256 21.7766 2.68994 20.9592 2.68994Z" fill="#231815"/>
<path d="M9.73016 38C5.69016 38 2.41016 34.72 2.41016 30.68V24.95C2.41016 17.42 8.54016 11.29 16.0702 11.29C23.6002 11.29 29.7302 17.42 29.7302 24.95V30.68C29.7302 34.72 26.4502 38 22.4102 38H9.72016H9.73016Z" fill="white"/>
<path d="M16.0702 13.2798C22.5102 13.2798 27.7302 18.4998 27.7302 24.9398V30.6698C27.7302 33.6098 25.3502 35.9898 22.4102 35.9898H9.72016C6.78016 35.9898 4.40016 33.6098 4.40016 30.6698V24.9398C4.40016 18.4998 9.62016 13.2798 16.0602 13.2798M16.0602 9.27979C7.44016 9.27979 0.410156 16.3098 0.410156 24.9498V30.6798C0.410156 35.8198 4.59016 39.9998 9.73016 39.9998H22.4202C27.5602 39.9998 31.7402 35.8198 31.7402 30.6798V24.9498C31.7402 16.3098 24.7102 9.28979 16.0802 9.28979L16.0602 9.27979Z" fill="#231815"/>
<path d="M11.7083 21.1099C12.5201 21.1099 13.1783 20.4518 13.1783 19.6399C13.1783 18.8281 12.5201 18.1699 11.7083 18.1699C10.8964 18.1699 10.2383 18.8281 10.2383 19.6399C10.2383 20.4518 10.8964 21.1099 11.7083 21.1099Z" fill="#231815"/>
<path d="M10.5205 23.4101C11.0948 23.4101 11.5605 22.9445 11.5605 22.3701C11.5605 21.7957 11.0948 21.3301 10.5205 21.3301C9.94609 21.3301 9.48047 21.7957 9.48047 22.3701C9.48047 22.9445 9.94609 23.4101 10.5205 23.4101Z" fill="#F0CECD"/>
<path d="M21.6611 23.4101C22.2355 23.4101 22.7011 22.9445 22.7011 22.3701C22.7011 21.7957 22.2355 21.3301 21.6611 21.3301C21.0867 21.3301 20.6211 21.7957 20.6211 22.3701C20.6211 22.9445 21.0867 23.4101 21.6611 23.4101Z" fill="#F0CECD"/>
<path d="M20.6184 21.1099C21.4303 21.1099 22.0884 20.4518 22.0884 19.6399C22.0884 18.8281 21.4303 18.1699 20.6184 18.1699C19.8066 18.1699 19.1484 18.8281 19.1484 19.6399C19.1484 20.4518 19.8066 21.1099 20.6184 21.1099Z" fill="#231815"/>
<path d="M17.6392 21.1099C17.6392 21.9199 16.9792 22.5799 16.1692 22.5799C15.3592 22.5799 14.6992 21.9199 14.6992 21.1099" stroke="#231815" stroke-width="2" stroke-linecap="round" stroke-linejoin="round"/>
<g opacity="0.8">
<path d="M22.2783 36.0001H9.85828C6.61828 36.0001 3.98828 33.3701 3.98828 30.1301V24.6401H28.1383V30.1301C28.1383 33.3701 25.5083 36.0001 22.2683 36.0001H22.2783Z" fill="#F2F3F4"/>
</g>
<path d="M17.6003 31.3799H14.5503C13.7329 31.3799 13.0703 32.0425 13.0703 32.8599C13.0703 33.6773 13.7329 34.3399 14.5503 34.3399H17.6003C18.4177 34.3399 19.0803 33.6773 19.0803 32.8599C19.0803 32.0425 18.4177 31.3799 17.6003 31.3799Z" fill="#231815"/>
</g>
<defs>
<clipPath id="clip0_1319_3454">
<rect width="32.15" height="40" fill="white"/>
</clipPath>
</defs>
</svg>
