<svg width="220" height="138" viewBox="0 0 220 138" fill="none" xmlns="http://www.w3.org/2000/svg">
<path id="Union" fill-rule="evenodd" clip-rule="evenodd" d="M89 10C89 4.47715 84.5229 0 79 0H10C4.47715 0 0 4.47715 0 10V23V106V128C0 133.523 4.47716 138 10 138H210C215.523 138 220 133.523 220 128V23C220 17.4772 215.523 13 210 13H94C93.4823 13 91.957 12.8295 90.6697 11.8C89.3497 10.7443 89.0549 9.82798 89.0076 9.31563V9C88.9999 9.07405 88.9952 9.18086 89.0076 9.31563V13H89V10Z" fill="white"/>
</svg>
