<svg width="50" height="51" viewBox="0 0 50 51" fill="none" xmlns="http://www.w3.org/2000/svg">
<mask id="mask0_296_10" style="mask-type:luminance" maskUnits="userSpaceOnUse" x="25" y="21" width="18" height="18">
<path d="M42.4769 25.561C42.4769 24.2866 42.3633 23.0564 42.1578 21.8757H25.5312V28.8436H35.0345C34.6234 31.0945 33.3794 33.0034 31.5133 34.2778V38.7962H37.2196C40.5568 35.6626 42.4823 31.0449 42.4823 25.561H42.4769Z" fill="white"/>
</mask>
<g mask="url(#mask0_296_10)">
<path d="M52.2874 11.8728H15.7188V48.8032H52.2874V11.8728Z" fill="#3E82F1"/>
</g>
<mask id="mask1_296_10" style="mask-type:luminance" maskUnits="userSpaceOnUse" x="9" y="28" width="29" height="16">
<path d="M25.5313 43.1588C30.2964 43.1588 34.2935 41.5479 37.2142 38.7949L31.508 34.2765C29.9286 35.3579 27.9057 35.9978 25.5313 35.9978C20.9338 35.9978 17.0395 32.8311 15.6549 28.572H9.75391V33.2394C12.6584 39.1259 18.6297 43.1588 25.5313 43.1588Z" fill="white"/>
</mask>
<g mask="url(#mask1_296_10)">
<path d="M47.0193 18.5642H-0.0585938V53.1609H47.0193V18.5642Z" fill="#32A753"/>
</g>
<mask id="mask2_296_10" style="mask-type:luminance" maskUnits="userSpaceOnUse" x="7" y="17" width="9" height="17">
<path d="M15.6489 28.5716C15.2973 27.4902 15.0972 26.3372 15.0972 25.1511C15.0972 23.9649 15.2973 22.8119 15.6489 21.7306V17.0632H9.74794C8.5526 19.4962 7.87109 22.2436 7.87109 25.1511C7.87109 28.0585 8.5526 30.8059 9.74794 33.2389L15.6489 28.5716Z" fill="white"/>
</mask>
<g mask="url(#mask2_296_10)">
<path d="M25.4598 7.05542H-1.93555V43.241H25.4598V7.05542Z" fill="#F9BB00"/>
</g>
<mask id="mask3_296_10" style="mask-type:luminance" maskUnits="userSpaceOnUse" x="9" y="7" width="29" height="15">
<path d="M25.5313 14.3063C28.1221 14.3063 30.4532 15.2165 32.2814 16.9985L37.344 11.8347C34.2881 8.92724 30.291 7.14526 25.5313 7.14526C18.6297 7.14526 12.6584 11.1781 9.75391 17.0647L15.6549 21.7321C17.0449 17.473 20.9338 14.3063 25.5313 14.3063Z" fill="white"/>
</mask>
<g mask="url(#mask3_296_10)">
<path d="M47.1491 -2.86255H-0.0585938V31.7342H47.1491V-2.86255Z" fill="#E74133"/>
</g>
</svg>
