<svg width="115" height="86" viewBox="0 0 115 86" fill="none" xmlns="http://www.w3.org/2000/svg">
<g clip-path="url(#clip0_440_25)">
<path d="M59.2387 82.5033C49.3132 82.5033 39.8419 79.0241 32.3803 72.6602H6.71021L20.0258 53.6385C19.0123 50.1593 18.5055 46.5927 18.5055 43.0087C18.5055 21.2071 36.7839 3.49658 59.2387 3.49658C81.6935 3.49658 99.9719 21.2071 99.9719 42.9912C99.9719 64.7753 81.6935 82.4858 59.2387 82.4858V82.5033Z" fill="white"/>
<path d="M59.2386 6.99329C79.8062 6.99329 96.4769 23.1128 96.4769 42.9913C96.4769 62.8697 79.8062 78.9892 59.2386 78.9892C49.348 78.9892 40.3661 75.2303 33.7083 69.1462H13.4203L23.8701 54.2155C22.6644 50.6839 22.0004 46.9075 22.0004 42.9913C22.0004 23.1128 38.6711 6.99329 59.2386 6.99329ZM59.2386 0C34.8616 0 15.0105 19.284 15.0105 42.9913C15.0105 46.348 15.4124 49.6699 16.2163 52.9567L7.6887 65.1425L-0.0175781 76.1395H31.1221C39.038 82.5034 48.9286 85.9825 59.2386 85.9825C83.6331 85.9825 103.467 66.6985 103.467 42.9913C103.467 19.284 83.6331 0 59.2386 0Z" fill="#222222"/>
<path d="M45.0669 44.0402C47.7016 44.0402 49.8375 41.9033 49.8375 39.2673C49.8375 36.6313 47.7016 34.4944 45.0669 34.4944C42.4322 34.4944 40.2964 36.6313 40.2964 39.2673C40.2964 41.9033 42.4322 44.0402 45.0669 44.0402Z" fill="#222222"/>
<path d="M41.2224 51.488C43.0851 51.488 44.595 49.9773 44.595 48.1138C44.595 46.2502 43.0851 44.7395 41.2224 44.7395C39.3598 44.7395 37.8499 46.2502 37.8499 48.1138C37.8499 49.9773 39.3598 51.488 41.2224 51.488Z" fill="#F0CECD"/>
<path d="M77.2725 51.488C79.1351 51.488 80.6451 49.9773 80.6451 48.1138C80.6451 46.2502 79.1351 44.7395 77.2725 44.7395C75.4099 44.7395 73.8999 46.2502 73.8999 48.1138C73.8999 49.9773 75.4099 51.488 77.2725 51.488Z" fill="#F0CECD"/>
<path d="M73.8999 44.0402C76.5346 44.0402 78.6705 41.9033 78.6705 39.2673C78.6705 36.6313 76.5346 34.4944 73.8999 34.4944C71.2652 34.4944 69.1294 36.6313 69.1294 39.2673C69.1294 41.9033 71.2652 44.0402 73.8999 44.0402Z" fill="#222222"/>
<path d="M64.254 44.0403C64.254 46.6803 62.1221 48.8132 59.4834 48.8132C56.8448 48.8132 54.7129 46.6803 54.7129 44.0403" stroke="#222222" stroke-width="6" stroke-linecap="round" stroke-linejoin="round"/>
<path d="M102.646 50.1245H82.6372C77.7442 50.1245 73.7776 54.0931 73.7776 58.9885V73.6395C73.7776 78.5349 77.7442 82.5034 82.6372 82.5034H102.646C107.539 82.5034 111.505 78.5349 111.505 73.6395V58.9885C111.505 54.0931 107.539 50.1245 102.646 50.1245Z" fill="white"/>
<path d="M102.646 53.621C105.616 53.621 108.01 56.0337 108.01 58.9883V73.6393C108.01 76.6114 105.599 79.0066 102.646 79.0066H82.6372C79.6665 79.0066 77.2725 76.5939 77.2725 73.6393V58.9883C77.2725 56.0162 79.684 53.621 82.6372 53.621H102.646ZM102.646 46.6277H82.6372C75.8221 46.6277 70.2827 52.1699 70.2827 58.9883V73.6393C70.2827 80.4577 75.8221 85.9999 82.6372 85.9999H102.646C109.461 85.9999 115 80.4577 115 73.6393V58.9883C115 52.1699 109.461 46.6277 102.646 46.6277Z" fill="#222222"/>
<path d="M86.7786 46.1733C86.7786 44.7057 85.5894 43.5159 84.1224 43.5159C82.6555 43.5159 81.4663 44.7057 81.4663 46.1733V54.0757C81.4663 55.5434 82.6555 56.7332 84.1224 56.7332C85.5894 56.7332 86.7786 55.5434 86.7786 54.0757V46.1733Z" fill="#222222"/>
<path d="M95.2888 46.1733C95.2888 44.7057 94.0996 43.5159 92.6327 43.5159C91.1657 43.5159 89.9766 44.7057 89.9766 46.1733V54.0757C89.9766 55.5434 91.1657 56.7332 92.6327 56.7332C94.0996 56.7332 95.2888 55.5434 95.2888 54.0757V46.1733Z" fill="#222222"/>
<path d="M103.816 46.1733C103.816 44.7057 102.627 43.5159 101.16 43.5159C99.6933 43.5159 98.5042 44.7057 98.5042 46.1733V54.0757C98.5042 55.5434 99.6933 56.7332 101.16 56.7332C102.627 56.7332 103.816 55.5434 103.816 54.0757V46.1733Z" fill="#222222"/>
</g>
<defs>
<clipPath id="clip0_440_25">
<rect width="115" height="86" fill="white"/>
</clipPath>
</defs>
</svg>

