<svg width="99" height="87" viewBox="0 0 99 87" fill="none" xmlns="http://www.w3.org/2000/svg">
<path d="M49.1311 83.2042C35.1415 83.2042 22.2989 77.1495 13.8939 66.6009C11.0358 63.0095 7.23761 57.4626 5.4137 51.3704C3.57099 45.2593 3.70261 39.0919 3.81543 33.1125C3.85303 31.6835 3.87184 30.2732 3.87184 28.8442V10.2854C3.87184 9.02563 4.49234 7.85983 5.52652 7.16412C6.14702 6.75045 6.88035 6.52481 7.63247 6.52481C8.12136 6.52481 8.59144 6.61882 9.06151 6.80686C12.07 8.04787 15.0221 9.4581 17.8802 10.8307C19.2904 11.5077 20.6819 12.1846 22.0921 12.8239C22.393 12.9743 22.7878 13.1811 23.2015 13.4256C23.2767 13.4632 23.3331 13.5008 23.4083 13.5572C23.7468 13.2751 24.2357 12.8427 24.5741 12.5418C25.1194 12.0529 25.6647 11.5829 26.1348 11.2256C32.7159 6.41199 40.8765 3.76074 49.1687 3.76074C55.6182 3.76074 61.9172 5.35901 67.389 8.36752C68.8368 9.15725 70.1154 10.229 71.3376 11.2444C72.447 12.1658 73.688 13.1999 74.6846 13.6324C74.8162 13.5572 74.929 13.482 75.0607 13.4068C75.4743 13.1623 75.8504 12.9555 76.17 12.8051C77.5803 12.147 78.9905 11.4888 80.382 10.8119C83.24 9.4393 86.1921 8.02906 89.2006 6.78805C89.6519 6.60002 90.1408 6.50601 90.6297 6.50601C91.363 6.50601 92.0963 6.73164 92.7356 7.14531C93.7698 7.84103 94.3903 9.00683 94.3903 10.2666V28.8066C94.3903 30.2168 94.4279 31.6459 94.4467 33.0749C94.5595 39.0543 94.6912 45.2405 92.8485 51.3328C91.0246 57.4062 87.2263 62.9719 84.3682 66.5634C75.9632 77.1495 63.1206 83.2042 49.1311 83.2042Z" fill="white"/>
<path d="M49.1687 7.52127C54.8473 7.52127 60.5071 8.8751 65.5839 11.658C68.4608 13.2374 71.2061 16.7724 74.3838 17.487C74.553 17.5246 74.7035 17.5434 74.8539 17.5434C74.8727 17.5434 74.8915 17.5434 74.9291 17.5434C75.7376 17.5058 77.0163 16.5656 77.7496 16.2459C82.0367 14.2716 86.2674 12.0716 90.6486 10.3041C90.6486 16.4904 90.6486 22.6766 90.6486 28.8441C90.6486 35.9705 91.3631 43.3413 89.2759 50.2797C87.7717 55.2625 84.7067 60.1702 81.4538 64.2504C73.3872 74.3666 61.278 79.4434 49.1499 79.4434C37.0407 79.4434 24.9315 74.3854 16.8649 64.2504C13.5931 60.1702 10.5094 55.2625 9.00516 50.2797C6.91801 43.3413 7.63253 35.9705 7.63253 28.8441C7.63253 22.6578 7.63253 16.4716 7.63253 10.3041C11.9949 12.0904 16.2444 14.2716 20.5315 16.2459C21.246 16.5844 22.5434 17.5246 23.352 17.5434C23.3708 17.5434 23.3896 17.5434 23.4272 17.5434C23.5776 17.5434 23.728 17.5246 23.8973 17.487C25.4391 17.1297 27.1126 15.1742 28.3912 14.234C34.4271 9.81526 41.7979 7.52127 49.1687 7.52127ZM49.1687 0C40.0868 0 31.1177 2.89569 23.9349 8.17938C23.5588 8.46143 23.2016 8.74348 22.8631 9.02552C21.7537 8.49903 20.6255 7.97255 19.5161 7.42725C16.6204 6.03582 13.6119 4.58797 10.4906 3.32816C9.56926 2.9521 8.6103 2.76407 7.65133 2.76407C6.18469 2.76407 4.71804 3.19654 3.45823 4.04268C1.35227 5.45292 0.11126 7.78451 0.11126 10.2853V28.8253C0.11126 30.2167 0.0736535 31.6081 0.0548503 33.0184C-0.0579688 38.9978 -0.189591 45.7669 1.80355 52.4421C3.42062 57.7822 6.48554 63.3291 10.9419 68.9324C20.0614 80.3836 33.9758 86.9647 49.1123 86.9647C64.2489 86.9647 78.182 80.4024 87.3016 68.9324C91.7579 63.3291 94.8417 57.7822 96.4399 52.4421C98.4519 45.7669 98.3203 38.9978 98.1886 33.0184C98.1698 31.6081 98.1322 30.2167 98.1322 28.8253V10.2853C98.1322 7.78451 96.8912 5.43412 94.8041 4.04268C93.5442 3.19654 92.0776 2.76407 90.6109 2.76407C89.652 2.76407 88.6742 2.9521 87.7717 3.32816C84.6503 4.60678 81.6418 6.03582 78.7461 7.42725C77.4487 8.04776 76.1701 8.66826 74.8727 9.26997C74.4778 8.95031 74.083 8.63066 73.7445 8.34861C72.4471 7.25803 70.9616 6.03582 69.2129 5.07686C63.1771 1.7487 56.2387 0 49.1687 0Z" fill="#9E9E9E"/>
<path d="M33.8817 44.601C36.7167 44.601 39.0149 42.3028 39.0149 39.4677C39.0149 36.6327 36.7167 34.3345 33.8817 34.3345C31.0467 34.3345 28.7484 36.6327 28.7484 39.4677C28.7484 42.3028 31.0467 44.601 33.8817 44.601Z" fill="#9E9E9E"/>
<path d="M29.7451 52.6111C31.7493 52.6111 33.3741 50.9863 33.3741 48.982C33.3741 46.9778 31.7493 45.353 29.7451 45.353C27.7409 45.353 26.1161 46.9778 26.1161 48.982C26.1161 50.9863 27.7409 52.6111 29.7451 52.6111Z" fill="#F0CECD"/>
<path d="M68.5174 52.6111C70.5217 52.6111 72.1465 50.9863 72.1465 48.982C72.1465 46.9778 70.5217 45.353 68.5174 45.353C66.5132 45.353 64.8884 46.9778 64.8884 48.982C64.8884 50.9863 66.5132 52.6111 68.5174 52.6111Z" fill="#F0CECD"/>
<path d="M64.8879 44.601C67.7229 44.601 70.0212 42.3028 70.0212 39.4677C70.0212 36.6327 67.7229 34.3345 64.8879 34.3345C62.0529 34.3345 59.7546 36.6327 59.7546 39.4677C59.7546 42.3028 62.0529 44.601 64.8879 44.601Z" fill="#9E9E9E"/>
<path d="M54.5087 44.6011C54.5087 47.4404 52.2147 49.7343 49.3755 49.7343C46.5362 49.7343 44.2422 47.4404 44.2422 44.6011" stroke="#9E9E9E" stroke-width="8" stroke-miterlimit="10" stroke-linecap="round" stroke-linejoin="round"/>
</svg>
