<svg width="116" height="111" viewBox="0 0 116 111" fill="none" xmlns="http://www.w3.org/2000/svg">
<g clip-path="url(#clip0_440_38)">
<path d="M59.3781 105.597C30.0903 105.597 6.24487 82.6904 6.24487 54.5557C6.24487 26.421 30.0903 3.49707 59.3781 3.49707C88.6659 3.49707 112.511 26.4035 112.511 54.5382C112.511 82.6729 88.6834 105.579 59.3781 105.579V105.597Z" fill="#A6C4D5"/>
<path d="M59.3781 6.99433C86.7994 6.99433 109.023 28.2921 109.023 54.5383C109.023 80.7845 86.7994 102.082 59.3781 102.082C31.9567 102.082 9.751 80.802 9.751 54.5383C9.751 28.2746 31.9742 6.99433 59.3781 6.99433ZM59.3781 0C28.154 0 2.77356 24.4627 2.77356 54.5383C2.77356 84.6139 28.1715 109.077 59.3955 109.077C90.6196 109.077 116.017 84.6139 116.017 54.5383C116.017 24.4627 90.6021 0 59.3781 0Z" fill="#3E82F1"/>
<path d="M12.4896 52.5449C12.4896 48.3308 13.135 44.2566 14.3386 40.4097C19.938 22.3818 37.7305 9.19751 58.8024 9.19751C67.1579 9.19751 74.9901 11.2783 81.7582 14.8979" stroke="white" stroke-width="3" stroke-miterlimit="10" stroke-linecap="round"/>
<path d="M59.1339 107.503C49.2259 107.503 39.7714 104.023 32.323 97.6584H6.69836L19.9904 78.6338C18.9787 75.1541 18.4728 71.587 18.4728 68.0024C18.4728 46.2151 36.7188 28.502 59.1339 28.502C81.5489 28.502 99.7949 46.2151 99.7949 68.0024C99.7949 89.7898 81.5489 107.503 59.1339 107.503Z" fill="white"/>
<path d="M59.1336 31.999C79.6647 31.999 96.3059 48.1209 96.3059 68.0023C96.3059 87.8837 79.6647 104.006 59.1336 104.006C49.2605 104.006 40.2945 100.246 33.6485 94.1611H13.3964L23.8277 79.2282C22.6241 75.696 21.9612 71.9191 21.9612 68.0023C21.9612 48.1209 38.6024 31.999 59.1336 31.999ZM59.1336 25.0046C34.7823 25.0046 14.9838 44.2915 14.9838 68.0023C14.9838 71.3596 15.385 74.6819 16.1874 77.9692L7.67493 90.1568L-0.0177002 101.155H31.0668C38.9688 107.52 48.8418 111 59.1336 111C83.4848 111 103.283 91.7131 103.283 68.0023C103.283 44.2915 83.4674 25.0046 59.1336 25.0046Z" fill="#3E82F1"/>
<path d="M96.3237 103.096C88.0554 103.096 81.3396 96.1894 81.3396 87.6738C81.3396 79.1582 88.0554 72.2688 96.3237 72.2688C104.592 72.2688 111.308 79.1757 111.308 87.6738C111.308 96.1719 104.592 103.096 96.3237 103.096Z" fill="white"/>
<path d="M96.3236 75.7661C102.673 75.7661 107.819 81.0992 107.819 87.6739C107.819 94.2486 102.673 99.5817 96.3236 99.5817C89.9741 99.5817 84.8283 94.2486 84.8283 87.6739C84.8283 81.0992 89.9741 75.7661 96.3236 75.7661ZM96.3236 68.7717C86.1365 68.7717 77.8508 77.2523 77.8508 87.6739C77.8508 98.0955 86.1365 106.576 96.3236 106.576C106.511 106.576 114.796 98.0955 114.796 87.6739C114.796 77.2523 106.511 68.7717 96.3236 68.7717Z" fill="#3E82F1"/>
<path d="M44.9871 69.0514C47.6171 69.0514 49.7492 66.9142 49.7492 64.2778C49.7492 61.6414 47.6171 59.5042 44.9871 59.5042C42.357 59.5042 40.225 61.6414 40.225 64.2778C40.225 66.9142 42.357 69.0514 44.9871 69.0514Z" fill="#3E82F1"/>
<path d="M41.1495 76.5005C43.0088 76.5005 44.5161 74.9896 44.5161 73.1257C44.5161 71.2619 43.0088 69.751 41.1495 69.751C39.2901 69.751 37.7828 71.2619 37.7828 73.1257C37.7828 74.9896 39.2901 76.5005 41.1495 76.5005Z" fill="#F0CECD"/>
<path d="M77.1357 76.5005C78.995 76.5005 80.5023 74.9896 80.5023 73.1257C80.5023 71.2619 78.995 69.751 77.1357 69.751C75.2763 69.751 73.769 71.2619 73.769 73.1257C73.769 74.9896 75.2763 76.5005 77.1357 76.5005Z" fill="#F0CECD"/>
<path d="M73.7691 69.0514C76.3991 69.0514 78.5312 66.9142 78.5312 64.2778C78.5312 61.6414 76.3991 59.5042 73.7691 59.5042C71.139 59.5042 69.007 61.6414 69.007 64.2778C69.007 66.9142 71.139 69.0514 73.7691 69.0514Z" fill="#3E82F1"/>
<path d="M64.1402 69.0515C64.1402 71.6919 62.0121 73.8251 59.3781 73.8251C56.7441 73.8251 54.616 71.6919 54.616 69.0515" stroke="#3E82F1" stroke-width="6" stroke-linecap="round" stroke-linejoin="round"/>
</g>
<defs>
<clipPath id="clip0_440_38">
<rect width="116" height="111" fill="white"/>
</clipPath>
</defs>
</svg>
