<svg width="50" height="50" viewBox="0 0 50 50" fill="none" xmlns="http://www.w3.org/2000/svg">
<g id="mic">
<path id="Vector" d="M25 2.0835C23.3424 2.0835 21.7527 2.74198 20.5806 3.91408C19.4085 5.08618 18.75 6.67589 18.75 8.3335V25.0002C18.75 26.6578 19.4085 28.2475 20.5806 29.4196C21.7527 30.5917 23.3424 31.2502 25 31.2502C26.6576 31.2502 28.2473 30.5917 29.4194 29.4196C30.5915 28.2475 31.25 26.6578 31.25 25.0002V8.3335C31.25 6.67589 30.5915 5.08618 29.4194 3.91408C28.2473 2.74198 26.6576 2.0835 25 2.0835Z" stroke="#A6A6A6" stroke-width="4" stroke-linecap="round" stroke-linejoin="round"/>
<path id="Vector_2" d="M39.5834 20.8335V25.0002C39.5834 28.8679 38.047 32.5772 35.3121 35.3121C32.5771 38.047 28.8678 39.5835 25.0001 39.5835C21.1323 39.5835 17.423 38.047 14.6881 35.3121C11.9532 32.5772 10.4167 28.8679 10.4167 25.0002V20.8335" stroke="#A6A6A6" stroke-width="4" stroke-linecap="round" stroke-linejoin="round"/>
<path id="Vector_3" d="M25 39.5835V47.9168" stroke="#A6A6A6" stroke-width="4" stroke-linecap="round" stroke-linejoin="round"/>
<path id="Vector_4" d="M16.6667 47.9165H33.3334" stroke="#A6A6A6" stroke-width="4" stroke-linecap="round" stroke-linejoin="round"/>
</g>
</svg>
