<svg width="16" height="16" viewBox="0 0 16 16" fill="none" xmlns="http://www.w3.org/2000/svg">
<path id="Subtract" fill-rule="evenodd" clip-rule="evenodd" d="M5.93917 8.6463L3.69193 7.89722L3.69192 7.89722L3.69192 7.89721C1.33871 7.11281 0.162109 6.72061 0.162109 5.99985C0.162109 5.27909 1.33872 4.88689 3.69193 4.10249L12.2051 1.26476C13.8609 0.712833 14.6888 0.436868 15.1258 0.873884C15.5628 1.3109 15.2869 2.1388 14.7349 3.79459L11.8972 12.3078L11.8972 12.3078L11.8972 12.3078C11.1128 14.661 10.7206 15.8376 9.99983 15.8376C9.27907 15.8376 8.88687 14.661 8.10246 12.3078L7.35338 10.0605L11.7069 5.70696C12.0975 5.31643 12.0975 4.68327 11.7069 4.29275C11.3164 3.90222 10.6832 3.90222 10.2927 4.29275L5.93917 8.6463Z" fill="#9E9E9E"/>
</svg>
