<svg width="32" height="32" viewBox="12 0 32 32" fill="none" xmlns="http://www.w3.org/2000/svg">
  <circle cx="32" cy="16" r="11.5" fill="#222222" stroke="#222222"/>
  <path d="M42.0019 16.5267C41.897 17.6615 41.4711 18.7429 40.7741 19.6445C40.077 20.5461 39.1375 21.2305 38.0657 21.6177C36.9938 22.0049 35.8339 22.0787 34.7216 21.8307C33.6092 21.5827 32.5906 21.023 31.7847 20.2172C30.9789 19.4113 30.4192 18.3927 30.1712 17.2803C29.9231 16.168 29.997 15.0081 30.3842 13.9362C30.7714 12.8643 31.4558 11.9249 32.3574 11.2278C33.259 10.5308 34.3404 10.1049 35.4752 10C34.8108 10.8988 34.4911 12.0063 34.5742 13.1209C34.6574 14.2356 35.1378 15.2834 35.9282 16.0737C36.7185 16.8641 37.7663 17.3445 38.8809 17.4276C39.9956 17.5108 41.103 17.1911 42.0019 16.5267Z" stroke="#D6D6D7" stroke-width="1.5" stroke-linecap="round" stroke-linejoin="round" transform="translate(-4, 0)"/>
</svg>