<svg width="36" height="32" viewBox="0 0 36 32" fill="none" xmlns="http://www.w3.org/2000/svg">
<g clip-path="url(#clip0_1598_1371)">
<path d="M17.9994 30.1378C12.8743 30.1378 8.16937 27.9447 5.09015 24.1238C4.04307 22.8229 2.65157 20.8138 1.98337 18.6071C1.30829 16.3935 1.35651 14.1596 1.39784 11.9938C1.41161 11.4761 1.4185 10.9653 1.4185 10.4477V3.72544C1.4185 3.26911 1.64583 2.84684 2.0247 2.59484C2.25203 2.445 2.52068 2.36327 2.79623 2.36327C2.97533 2.36327 3.14755 2.39733 3.31977 2.46544C4.42195 2.91495 5.50346 3.42576 6.55054 3.92295C7.06718 4.16814 7.57694 4.41333 8.09359 4.6449C8.20381 4.69938 8.34847 4.7743 8.50002 4.86284C8.52757 4.87646 8.54824 4.89009 8.57579 4.91052C8.69979 4.80836 8.87889 4.65171 9.00289 4.54273C9.20266 4.36565 9.40243 4.19538 9.57465 4.06598C11.9788 2.32241 14.9684 1.3689 18.0063 1.3689C20.3691 1.3689 22.6768 1.94782 24.6814 3.03754C25.2118 3.3236 25.6803 3.71181 26.128 4.0796C26.5345 4.41333 26.9891 4.78792 27.3542 4.94457C27.4024 4.91733 27.4438 4.89009 27.492 4.86284C27.6435 4.7743 27.7813 4.69938 27.8984 4.6449C28.4151 4.40652 28.9317 4.16814 29.4415 3.92295C30.4885 3.42576 31.5701 2.91495 32.6722 2.46544C32.8376 2.39733 33.0167 2.36327 33.1958 2.36327C33.4644 2.36327 33.7331 2.445 33.9673 2.59484C34.3462 2.84684 34.5735 3.26911 34.5735 3.72544V10.4409C34.5735 10.9517 34.5873 11.4693 34.5942 11.9869C34.6355 14.1528 34.6837 16.3935 34.0086 18.6002C33.3404 20.8001 31.9489 22.8161 30.9019 24.117C27.8226 27.9379 23.1177 30.1309 17.9926 30.1309L17.9994 30.1378Z" fill="white"/>
<path d="M18.0153 2.72432C20.0959 2.72432 22.1697 3.2147 24.0298 4.2227C25.0839 4.79481 26.0898 6.07524 27.2541 6.33405C27.3161 6.34768 27.3712 6.35449 27.4263 6.35449C27.4332 6.35449 27.4401 6.35449 27.4539 6.35449C27.7501 6.34086 28.2186 6.00032 28.4873 5.88454C30.0581 5.16941 31.6082 4.37254 33.2134 3.73232V10.4478C33.2134 13.0291 33.4752 15.6989 32.7105 18.2121C32.1593 20.017 31.0364 21.7946 29.8445 23.2725C26.8889 26.9368 22.4521 28.7757 18.0084 28.7757C13.5647 28.7757 9.13483 26.9436 6.17926 23.2725C4.98739 21.7946 3.86441 20.0238 3.31325 18.2121C2.54852 15.6989 2.81032 13.0291 2.81032 10.4478V3.72551C4.40867 4.37254 5.96569 5.16259 7.53648 5.87773C7.79828 6.00032 8.27365 6.34086 8.56989 6.34768C8.57678 6.34768 8.58367 6.34768 8.59745 6.34768C8.65257 6.34768 8.70768 6.34086 8.76969 6.32724C9.33462 6.19784 9.94778 5.48951 10.4163 5.14897C12.6278 3.54162 15.3353 2.7107 18.036 2.7107M18.0153 0C14.6877 0 11.4015 1.04886 8.76969 2.9627C8.6319 3.06486 8.501 3.16703 8.37699 3.26919C7.97051 3.07849 7.55715 2.88778 7.15067 2.69027C6.0897 2.18627 4.98739 1.66184 3.84374 1.20551C3.50616 1.0693 3.15479 1.00119 2.80343 1.00119C2.26606 1.00119 1.72868 1.15784 1.26709 1.46432C0.495469 1.97514 0.0407654 2.81968 0.0407654 3.72551V10.441C0.0407654 10.945 0.0269865 11.449 0.020097 11.9598C-0.0212396 14.1256 -0.0694657 16.5775 0.660815 18.9954C1.25331 20.9296 2.37629 22.9388 4.00908 24.9684C7.35046 29.1162 12.4487 31.5 17.9947 31.5C23.5407 31.5 28.6457 29.123 31.9871 24.9684C33.6199 22.9388 34.7498 20.9296 35.3354 18.9954C36.0726 16.5775 36.0243 14.1256 35.9761 11.9598C35.9692 11.449 35.9554 10.945 35.9554 10.441V3.72551C35.9554 2.81968 35.5007 1.96832 34.736 1.46432C34.2744 1.15784 33.737 1.00119 33.1997 1.00119C32.8483 1.00119 32.49 1.0693 32.1593 1.20551C31.0157 1.66865 29.9134 2.18627 28.8524 2.69027C28.377 2.91503 27.9086 3.13978 27.4332 3.35773C27.2885 3.24195 27.1438 3.12616 27.0198 3.024C26.5445 2.62897 26.0002 2.18627 25.3595 1.83892C23.148 0.633405 20.6058 0 18.0153 0Z" fill="#231815"/>
<path d="M12.4158 16.1552C13.4544 16.1552 14.2964 15.3228 14.2964 14.2959C14.2964 13.269 13.4544 12.4365 12.4158 12.4365C11.3771 12.4365 10.5352 13.269 10.5352 14.2959C10.5352 15.3228 11.3771 16.1552 12.4158 16.1552Z" fill="#231815"/>
<path d="M10.8979 19.0567C11.6321 19.0567 12.2274 18.4682 12.2274 17.7422C12.2274 17.0162 11.6321 16.4277 10.8979 16.4277C10.1636 16.4277 9.56836 17.0162 9.56836 17.7422C9.56836 18.4682 10.1636 19.0567 10.8979 19.0567Z" fill="#F0CECD"/>
<path d="M25.101 19.0565C25.8353 19.0565 26.4305 18.4679 26.4305 17.742C26.4305 17.016 25.8353 16.4275 25.101 16.4275C24.3667 16.4275 23.7715 17.016 23.7715 17.742C23.7715 18.4679 24.3667 19.0565 25.101 19.0565Z" fill="#F0CECD"/>
<path d="M23.7712 16.1552C24.8098 16.1552 25.6518 15.3228 25.6518 14.2959C25.6518 13.269 24.8098 12.4365 23.7712 12.4365C22.7326 12.4365 21.8906 13.269 21.8906 14.2959C21.8906 15.3228 22.7326 16.1552 23.7712 16.1552Z" fill="#231815"/>
<path d="M19.9682 16.155C19.9682 17.1835 19.1278 18.0144 18.0876 18.0144C17.0474 18.0144 16.207 17.1835 16.207 16.155" stroke="#231815" stroke-width="2" stroke-linecap="round" stroke-linejoin="round"/>
</g>
<defs>
<clipPath id="clip0_1598_1371">
<rect width="36" height="31.5" fill="white"/>
</clipPath>
</defs>
</svg>
