<svg width="136" height="121" viewBox="0 0 136 121" fill="none" xmlns="http://www.w3.org/2000/svg">
<path d="M67.8786 114.954C48.5508 114.954 30.8077 106.589 19.1955 92.0148C15.2468 87.0529 9.99917 79.3894 7.47929 70.9724C4.93342 62.5295 5.11527 54.0087 5.27114 45.7476C5.3231 43.7732 5.34908 41.8249 5.34908 39.8505V14.2101C5.34908 12.4695 6.20636 10.8589 7.63516 9.89767C8.49244 9.32615 9.50559 9.01441 10.5447 9.01441C11.2201 9.01441 11.8696 9.1443 12.5191 9.40409C16.6756 11.1186 20.7541 13.067 24.7028 14.9634C26.6512 15.8986 28.5736 16.8339 30.522 17.7171C30.9376 17.9249 31.4831 18.2107 32.0547 18.5484C32.1586 18.6004 32.2365 18.6523 32.3404 18.7303C32.808 18.3406 33.4835 17.7431 33.9511 17.3274C34.7044 16.652 35.4578 16.0025 36.1073 15.509C45.1996 8.85854 56.4742 5.19562 67.9306 5.19562C76.8411 5.19562 85.5438 7.40376 93.1034 11.5603C95.1038 12.6514 96.8703 14.1321 98.5589 15.5349C100.092 16.8079 101.806 18.2367 103.183 18.8342C103.365 18.7303 103.521 18.6263 103.703 18.5224C104.274 18.1847 104.794 17.899 105.235 17.6911C107.184 16.7819 109.132 15.8727 111.054 14.9374C115.003 13.041 119.082 11.0927 123.238 9.37811C123.862 9.11833 124.537 8.98844 125.212 8.98844C126.226 8.98844 127.239 9.30017 128.122 9.87169C129.551 10.8329 130.408 12.4435 130.408 14.1841V39.7986C130.408 41.7469 130.46 43.7213 130.486 45.6956C130.642 53.9567 130.824 62.5035 128.278 70.9205C125.758 79.3114 120.51 87.001 116.562 91.9628C104.949 106.589 87.2064 114.954 67.8786 114.954Z" fill="white"/>
<path d="M67.9308 10.3913C75.7763 10.3913 83.5957 12.2617 90.6098 16.1065C94.5845 18.2887 98.3773 23.1726 102.768 24.1597C103.001 24.2117 103.209 24.2377 103.417 24.2377C103.443 24.2377 103.469 24.2377 103.521 24.2377C104.638 24.1857 106.405 22.8868 107.418 22.4452C113.341 19.7175 119.186 16.678 125.239 14.2361C125.239 22.7829 125.239 31.3297 125.239 39.8506C125.239 49.6963 126.226 59.8798 123.342 69.4657C121.264 76.3499 117.03 83.1302 112.535 88.7675C101.391 102.744 84.6608 109.758 67.9049 109.758C51.1749 109.758 34.4449 102.77 23.3003 88.7675C18.7801 83.1302 14.5197 76.3499 12.4414 69.4657C9.55782 59.8798 10.545 49.6963 10.545 39.8506C10.545 31.3037 10.545 22.7569 10.545 14.2361C16.5719 16.704 22.443 19.7175 28.366 22.4452C29.3532 22.9128 31.1457 24.2117 32.2628 24.2377C32.2887 24.2377 32.3147 24.2377 32.3667 24.2377C32.5745 24.2377 32.7823 24.2117 33.0161 24.1597C35.1464 23.6661 37.4584 20.9644 39.2249 19.6655C47.5639 13.5606 57.7474 10.3913 67.9308 10.3913ZM67.9308 0C55.3834 0 42.9918 4.00064 33.0681 11.3005C32.5485 11.6902 32.0549 12.0799 31.5873 12.4695C30.0546 11.7421 28.4959 11.0148 26.9632 10.2614C22.9626 8.339 18.8061 6.33868 14.4937 4.59814C13.2207 4.07858 11.8959 3.8188 10.571 3.8188C8.54467 3.8188 6.51837 4.41629 4.77783 5.58531C1.86828 7.53368 0.153715 10.755 0.153715 14.2101V39.8246C0.153715 41.747 0.101759 43.6694 0.0757804 45.6177C-0.0800888 53.8788 -0.261936 63.2309 2.49175 72.4532C4.72588 79.831 8.96033 87.4946 15.1172 95.2361C27.7166 111.057 46.9405 120.149 67.8529 120.149C88.7654 120.149 108.015 111.083 120.615 95.2361C126.771 87.4946 131.032 79.831 133.24 72.4532C136.02 63.2309 135.838 53.8788 135.656 45.6177C135.63 43.6694 135.578 41.747 135.578 39.8246V14.2101C135.578 10.755 133.864 7.5077 130.98 5.58531C129.239 4.41629 127.213 3.8188 125.187 3.8188C123.862 3.8188 122.511 4.07858 121.264 4.59814C116.952 6.36466 112.795 8.339 108.795 10.2614C107.002 11.1187 105.236 11.976 103.443 12.8073C102.897 12.3656 102.352 11.924 101.884 11.5343C100.092 10.0276 98.0396 8.339 95.6236 7.01411C87.2846 2.41597 77.6986 0 67.9308 0Z" fill="#132F5C"/>
<path d="M46.8103 61.6203C50.7271 61.6203 53.9024 58.4451 53.9024 54.5283C53.9024 50.6114 50.7271 47.4362 46.8103 47.4362C42.8935 47.4362 39.7183 50.6114 39.7183 54.5283C39.7183 58.4451 42.8935 61.6203 46.8103 61.6203Z" fill="#132F5C"/>
<path d="M41.0953 72.687C43.8644 72.687 46.1091 70.4423 46.1091 67.6732C46.1091 64.9042 43.8644 62.6594 41.0953 62.6594C38.3263 62.6594 36.0815 64.9042 36.0815 67.6732C36.0815 70.4423 38.3263 72.687 41.0953 72.687Z" fill="#F0CECD"/>
<path d="M94.6627 72.687C97.4318 72.687 99.6765 70.4423 99.6765 67.6732C99.6765 64.9042 97.4318 62.6594 94.6627 62.6594C91.8937 62.6594 89.6489 64.9042 89.6489 67.6732C89.6489 70.4423 91.8937 72.687 94.6627 72.687Z" fill="#F0CECD"/>
<path d="M89.6482 61.6203C93.565 61.6203 96.7403 58.4451 96.7403 54.5283C96.7403 50.6114 93.565 47.4362 89.6482 47.4362C85.7314 47.4362 82.5562 50.6114 82.5562 54.5283C82.5562 58.4451 85.7314 61.6203 89.6482 61.6203Z" fill="#132F5C"/>
<path d="M75.3084 61.6203C75.3084 65.543 72.139 68.7124 68.2163 68.7124C64.2936 68.7124 61.1243 65.543 61.1243 61.6203" stroke="#132F5C" stroke-width="8" stroke-miterlimit="10" stroke-linecap="round" stroke-linejoin="round"/>
</svg>
