<svg width="78" height="78" viewBox="0 0 78 78" fill="none" xmlns="http://www.w3.org/2000/svg">
<rect width="78" height="78" fill="#C4DCFD"/>
<g clip-path="url(#clip0_846_2221)">
<path d="M38.6172 64.6147C25.4882 64.6147 14.7988 54.5029 14.7988 42.0831C14.7988 29.6633 25.4882 19.5437 38.6172 19.5437C51.7462 19.5437 62.4355 29.6555 62.4355 42.0754C62.4355 54.4952 51.754 64.607 38.6172 64.607V64.6147Z" fill="#A6C4D5"/>
<path d="M38.6186 21.0876C50.9109 21.0876 60.873 30.4893 60.873 42.0755C60.873 53.6616 50.9109 63.0633 38.6186 63.0633C26.3262 63.0633 16.372 53.6693 16.372 42.0755C16.372 30.4816 26.3341 21.0876 38.6186 21.0876ZM38.6186 18C24.6216 18 13.2441 28.7988 13.2441 42.0755C13.2441 55.3521 24.6294 66.1509 38.6264 66.1509C52.6234 66.1509 64.0087 55.3521 64.0087 42.0755C64.0087 28.7988 52.6156 18 38.6186 18Z" fill="black"/>
<path d="M18 42C18 40.0557 18.2888 38.1759 18.8275 36.401C21.3334 28.0831 29.2961 22 38.7265 22C42.4659 22 45.971 22.9601 49 24.6301" stroke="white" stroke-width="2" stroke-miterlimit="10" stroke-linecap="round"/>
<path d="M38.5095 65.4563C34.068 65.4563 29.8298 63.9202 26.4908 61.1105H15.0039L20.9624 52.7123C20.5089 51.1762 20.2821 49.6016 20.2821 48.0192C20.2821 38.4013 28.4613 30.582 38.5095 30.582C48.5576 30.582 56.7368 38.4013 56.7368 48.0192C56.7368 57.637 48.5576 65.4563 38.5095 65.4563Z" fill="white"/>
<path d="M38.5083 32.1257C47.7119 32.1257 55.1717 39.2426 55.1717 48.019C55.1717 56.7955 47.7119 63.9124 38.5083 63.9124C34.0824 63.9124 30.0632 62.2528 27.0839 59.5666H18.0054L22.6815 52.9746C22.142 51.4154 21.8448 49.7481 21.8448 48.019C21.8448 39.2426 29.3047 32.1257 38.5083 32.1257ZM38.5083 29.0381C27.5922 29.0381 18.717 37.5521 18.717 48.019C18.717 49.5011 18.8968 50.9677 19.2565 52.4188L15.4406 57.799L11.9922 62.6542H25.9266C29.4689 65.4639 33.8947 67 38.5083 67C49.4244 67 58.2995 58.4859 58.2995 48.019C58.2995 37.5521 49.4165 29.0381 38.5083 29.0381Z" fill="black"/>
<path d="M55.1799 63.5111C51.4734 63.5111 48.4629 60.4621 48.4629 56.703C48.4629 52.9439 51.4734 49.9026 55.1799 49.9026C58.8863 49.9026 61.8969 52.9516 61.8969 56.703C61.8969 60.4544 58.8863 63.5111 55.1799 63.5111Z" fill="white"/>
<path d="M55.1793 51.4462C58.0257 51.4462 60.3324 53.8005 60.3324 56.7028C60.3324 59.6052 58.0257 61.9595 55.1793 61.9595C52.333 61.9595 50.0263 59.6052 50.0263 56.7028C50.0263 53.8005 52.333 51.4462 55.1793 51.4462ZM55.1793 48.3586C50.6127 48.3586 46.8984 52.1023 46.8984 56.7028C46.8984 61.3033 50.6127 65.047 55.1793 65.047C59.746 65.047 63.4602 61.3033 63.4602 56.7028C63.4602 52.1023 59.746 48.3586 55.1793 48.3586Z" fill="black"/>
<path d="M32.166 48.4821C33.345 48.4821 34.3007 47.5387 34.3007 46.3749C34.3007 45.211 33.345 44.2676 32.166 44.2676C30.987 44.2676 30.0312 45.211 30.0312 46.3749C30.0312 47.5387 30.987 48.4821 32.166 48.4821Z" fill="black"/>
<path d="M30.4467 51.7705C31.2802 51.7705 31.9558 51.1035 31.9558 50.2808C31.9558 49.458 31.2802 48.791 30.4467 48.791C29.6132 48.791 28.9375 49.458 28.9375 50.2808C28.9375 51.1035 29.6132 51.7705 30.4467 51.7705Z" fill="#F0CECD"/>
<path d="M46.5775 51.7705C47.411 51.7705 48.0867 51.1035 48.0867 50.2808C48.0867 49.458 47.411 48.791 46.5775 48.791C45.744 48.791 45.0684 49.458 45.0684 50.2808C45.0684 51.1035 45.744 51.7705 46.5775 51.7705Z" fill="#F0CECD"/>
<path d="M45.0683 48.4821C46.2473 48.4821 47.2031 47.5387 47.2031 46.3749C47.2031 45.211 46.2473 44.2676 45.0683 44.2676C43.8893 44.2676 42.9336 45.211 42.9336 46.3749C42.9336 47.5387 43.8893 48.4821 45.0683 48.4821Z" fill="black"/>
<path d="M40.7519 48.4822C40.7519 49.6477 39.7979 50.5895 38.6172 50.5895C37.4364 50.5895 36.4824 49.6477 36.4824 48.4822" stroke="black" stroke-width="2" stroke-linecap="round" stroke-linejoin="round"/>
</g>
<defs>
<clipPath id="clip0_846_2221">
<rect width="52" height="49" fill="white" transform="translate(12 18)"/>
</clipPath>
</defs>
</svg>
