<svg width="78" height="78" viewBox="0 0 78 78" fill="none" xmlns="http://www.w3.org/2000/svg">
<rect width="78" height="78" fill="#C4DCFD"/>
<g clip-path="url(#clip0_846_2266)">
<path d="M35.2408 50.8701C35.2408 50.8701 35.1308 53.7001 38.0708 53.7001C41.0108 53.7001 41.1308 50.8701 41.1308 50.8701V40.0901" stroke="#231815" stroke-width="4" stroke-linecap="round" stroke-linejoin="round"/>
<path d="M30.89 43.65C27.09 43.65 24 40.56 24 36.76C24 32.96 27.09 29.87 30.89 29.87H31.87C32.76 26.5 35.83 24 39.48 24C43.13 24 46.21 26.5 47.09 29.87H48.07C51.87 29.87 54.96 32.96 54.96 36.76C54.96 40.56 51.87 43.65 48.07 43.65H30.89Z" fill="white"/>
<path d="M39.48 26C42.72 26 45.35 28.63 45.35 31.87H48.07C50.77 31.87 52.96 34.06 52.96 36.76C52.96 39.46 50.77 41.65 48.07 41.65H30.89C28.19 41.65 26 39.46 26 36.76C26 34.06 28.19 31.87 30.89 31.87H33.61C33.61 28.63 36.24 26 39.48 26ZM39.48 22C35.46 22 31.99 24.42 30.45 27.88C25.75 28.11 22 32 22 36.76C22 41.52 25.99 45.65 30.89 45.65H48.08C52.98 45.65 56.97 41.66 56.97 36.76C56.97 31.86 53.22 28.11 48.52 27.88C46.98 24.42 43.52 22 39.49 22L39.48 22Z" fill="#231815"/>
<path d="M35.0989 36.16C35.9108 36.16 36.5689 35.5018 36.5689 34.69C36.5689 33.8781 35.9108 33.22 35.0989 33.22C34.287 33.22 33.6289 33.8781 33.6289 34.69C33.6289 35.5018 34.287 36.16 35.0989 36.16Z" fill="#231815"/>
<path d="M33.9111 38.4599C34.4855 38.4599 34.9511 37.9943 34.9511 37.4199C34.9511 36.8455 34.4855 36.3799 33.9111 36.3799C33.3367 36.3799 32.8711 36.8455 32.8711 37.4199C32.8711 37.9943 33.3367 38.4599 33.9111 38.4599Z" fill="#F0CECD"/>
<path d="M45.0498 38.4599C45.6241 38.4599 46.0898 37.9943 46.0898 37.4199C46.0898 36.8455 45.6241 36.3799 45.0498 36.3799C44.4754 36.3799 44.0098 36.8455 44.0098 37.4199C44.0098 37.9943 44.4754 38.4599 45.0498 38.4599Z" fill="#F0CECD"/>
<path d="M44.0091 36.16C44.8209 36.16 45.4791 35.5018 45.4791 34.69C45.4791 33.8781 44.8209 33.22 44.0091 33.22C43.1972 33.22 42.5391 33.8781 42.5391 34.69C42.5391 35.5018 43.1972 36.16 44.0091 36.16Z" fill="#231815"/>
<path d="M41.0298 36.1599C41.0298 36.9699 40.3698 37.6299 39.5598 37.6299C38.7498 37.6299 38.0898 36.9699 38.0898 36.1599" stroke="#231815" stroke-width="2" stroke-linecap="round" stroke-linejoin="round"/>
</g>
<defs>
<clipPath id="clip0_846_2266">
<rect width="34.96" height="33.7" fill="white" transform="translate(22 22)"/>
</clipPath>
</defs>
</svg>
