<svg width="78" height="78" viewBox="0 0 78 78" fill="none" xmlns="http://www.w3.org/2000/svg">
<rect width="78" height="78" fill="#D2E3ED"/>
<path d="M39.1303 65.25C31.6903 65.25 24.8603 62.03 20.3903 56.42C18.8703 54.51 16.8503 51.56 15.8803 48.32C14.9003 45.07 14.9703 41.79 15.0303 38.61C15.0503 37.85 15.0603 37.1 15.0603 36.34V26.47C15.0603 25.8 15.3903 25.18 15.9403 24.81C16.2703 24.59 16.6603 24.47 17.0603 24.47C17.3203 24.47 17.5703 24.52 17.8203 24.62C19.4203 25.28 20.9903 26.03 22.5103 26.76C23.2603 27.12 24.0003 27.48 24.7503 27.82C24.9103 27.9 25.1203 28.01 25.3403 28.14C25.3803 28.16 25.4103 28.18 25.4503 28.21C25.6303 28.06 25.8903 27.83 26.0703 27.67C26.3603 27.41 26.6503 27.16 26.9003 26.97C30.3903 24.41 34.7303 23.01 39.1403 23.01C42.5703 23.01 45.9203 23.86 48.8303 25.46C49.6003 25.88 50.2803 26.45 50.9303 26.99C51.5203 27.48 52.1803 28.03 52.7103 28.26C52.7803 28.22 52.8403 28.18 52.9103 28.14C53.1303 28.01 53.3303 27.9 53.5003 27.82C54.2503 27.47 55.0003 27.12 55.7403 26.76C57.2603 26.03 58.8303 25.28 60.4303 24.62C60.6703 24.52 60.9303 24.47 61.1903 24.47C61.5803 24.47 61.9703 24.59 62.3103 24.81C62.8603 25.18 63.1903 25.8 63.1903 26.47V36.33C63.1903 37.08 63.2103 37.84 63.2203 38.6C63.2803 41.78 63.3503 45.07 62.3703 48.31C61.4003 51.54 59.3803 54.5 57.8603 56.41C53.3903 62.02 46.5603 65.24 39.1203 65.24L39.1303 65.25Z" fill="white"/>
<path d="M39.0204 26.6324C41.7946 26.6324 44.5595 27.2863 47.0397 28.6303C48.4452 29.3931 49.7863 31.1003 51.3388 31.4454C51.4214 31.4636 51.4949 31.4726 51.5684 31.4726C51.5776 31.4726 51.5868 31.4726 51.6051 31.4726C52.0001 31.4545 52.6248 31.0004 52.983 30.8461C55.0774 29.8925 57.1443 28.8301 59.2846 27.9764V36.9304C59.2846 40.3721 59.6336 43.9319 58.614 47.2828C57.8791 49.6893 56.3818 52.0595 54.7927 54.0301C50.8519 58.9157 44.9362 61.3676 39.0112 61.3676C33.0863 61.3676 27.1798 58.9248 23.239 54.0301C21.6498 52.0595 20.1525 49.6984 19.4177 47.2828C18.398 43.9319 18.7471 40.3721 18.7471 36.9304V27.9674C20.8782 28.8301 22.9542 29.8835 25.0486 30.837C25.3977 31.0004 26.0315 31.4545 26.4265 31.4636C26.4357 31.4636 26.4449 31.4636 26.4633 31.4636C26.5368 31.4636 26.6102 31.4545 26.6929 31.4363C27.4462 31.2638 28.2637 30.3194 28.8884 29.8653C31.837 27.7222 35.4471 26.6143 39.048 26.6143M39.0204 23C34.5836 23 30.2019 24.3985 26.6929 26.9503C26.5092 27.0865 26.3347 27.2227 26.1693 27.3589C25.6274 27.1046 25.0762 26.8504 24.5342 26.587C23.1196 25.915 21.6498 25.2158 20.125 24.6074C19.6749 24.4257 19.2064 24.3349 18.7379 24.3349C18.0214 24.3349 17.3049 24.5438 16.6894 24.9524C15.6606 25.6335 15.0544 26.7596 15.0544 27.9674V36.9213C15.0544 37.5933 15.036 38.2653 15.0268 38.9464C14.9717 41.8342 14.9074 45.1034 15.8811 48.3271C16.6711 50.9062 18.1684 53.5851 20.3454 56.2912C24.8006 61.8216 31.5982 65 38.9929 65C46.3875 65 53.1943 61.8307 57.6495 56.2912C59.8265 53.5851 61.333 50.9062 62.1138 48.3271C63.0967 45.1034 63.0324 41.8342 62.9681 38.9464C62.9589 38.2653 62.9406 37.5933 62.9406 36.9213V27.9674C62.9406 26.7596 62.3343 25.6244 61.3147 24.9524C60.6992 24.5438 59.9827 24.3349 59.2662 24.3349C58.7977 24.3349 58.3201 24.4257 57.8791 24.6074C56.3543 25.2249 54.8845 25.915 53.4699 26.587C52.8361 26.8867 52.2114 27.1864 51.5776 27.477C51.3847 27.3226 51.1918 27.1682 51.0264 27.032C50.3926 26.5053 49.6669 25.915 48.8126 25.4519C45.8639 23.8445 42.4743 23 39.0204 23Z" fill="#231815"/>
<path d="M31.0191 44.72C32.5268 44.72 33.7491 43.4977 33.7491 41.99C33.7491 40.4823 32.5268 39.26 31.0191 39.26C29.5113 39.26 28.2891 40.4823 28.2891 41.99C28.2891 43.4977 29.5113 44.72 31.0191 44.72Z" fill="#231815"/>
<path d="M28.8206 48.9801C29.8865 48.9801 30.7506 48.116 30.7506 47.0501C30.7506 45.9842 29.8865 45.1201 28.8206 45.1201C27.7547 45.1201 26.8906 45.9842 26.8906 47.0501C26.8906 48.116 27.7547 48.9801 28.8206 48.9801Z" fill="#F0CECD"/>
<path d="M49.4398 48.9801C50.5057 48.9801 51.3698 48.116 51.3698 47.0501C51.3698 45.9842 50.5057 45.1201 49.4398 45.1201C48.3739 45.1201 47.5098 45.9842 47.5098 47.0501C47.5098 48.116 48.3739 48.9801 49.4398 48.9801Z" fill="#F0CECD"/>
<path d="M47.5093 44.72C49.017 44.72 50.2393 43.4977 50.2393 41.99C50.2393 40.4823 49.017 39.26 47.5093 39.26C46.0016 39.26 44.7793 40.4823 44.7793 41.99C44.7793 43.4977 46.0016 44.72 47.5093 44.72Z" fill="#231815"/>
<path d="M41.9893 44.72C41.9893 46.23 40.7693 47.45 39.2593 47.45C37.7493 47.45 36.5293 46.23 36.5293 44.72" stroke="#231815" stroke-width="3" stroke-linecap="round" stroke-linejoin="round"/>
</svg>
