<svg width="78" height="78" viewBox="0 0 78 78" fill="none" xmlns="http://www.w3.org/2000/svg">
<rect width="78" height="78" fill="#EDF7F8"/>
<g clip-path="url(#clip0_846_2281)">
<path d="M31.31 53.67C26.74 53.67 23.01 49.95 23.01 45.37C23.01 42.75 23.01 40.14 23 37.52C23 37.19 23 36.93 23 36.68C23.13 31.11 28.28 26.32 32.97 25.07C33.14 25.03 33.31 25 33.49 25C33.93 25 34.36 25.14 34.71 25.41C35.2 25.79 35.49 26.37 35.49 27V28.48H42.98V27C42.98 26.38 43.27 25.79 43.76 25.41C44.11 25.14 44.54 25 44.98 25C45.15 25 45.32 25.02 45.49 25.07C48.52 25.87 51.28 27.86 53.28 30.67C54.35 32.18 55.04 33.93 55.37 36.01C55.72 38.22 55.63 40.46 55.53 42.63C55.49 43.56 55.45 44.47 55.45 45.37C55.45 49.95 51.73 53.67 47.15 53.67H31.3H31.31Z" fill="#F6DAD5"/>
<path d="M44.98 27C47.69 27.72 50.04 29.56 51.65 31.83C52.63 33.2 53.14 34.73 53.39 36.33C53.86 39.27 53.45 42.45 53.45 45.37C53.45 48.85 50.63 51.67 47.15 51.67H31.3C27.82 51.67 25 48.85 25 45.37C25 42.75 25 40.13 24.99 37.52C24.99 37.26 24.99 37 24.99 36.73C25.1 32.3 29.29 28.12 33.48 27V30.48H44.97V27M44.97 23C44.1 23 43.24 23.29 42.53 23.83C41.68 24.48 41.14 25.44 41 26.48H37.4C36.86 23.04 33.64 23 33.49 23C33.14 23 32.8 23.05 32.46 23.14C26.95 24.6 21.16 30.05 21 36.63C21 36.9 21 37.16 21 37.43V37.53C21 40.14 21.01 42.76 21.01 45.37C21.01 51.05 25.63 55.67 31.31 55.67H47.16C52.84 55.67 57.46 51.05 57.46 45.37C57.46 44.53 57.5 43.65 57.54 42.72C57.63 40.56 57.74 38.11 57.35 35.7C56.97 33.3 56.17 31.28 54.92 29.51C52.65 26.32 49.48 24.06 46.01 23.13C45.67 23.04 45.33 23 44.98 23L44.97 23Z" fill="#231815"/>
<path d="M45.0994 42.8201C46.1984 42.8201 47.0894 41.9291 47.0894 40.8301C47.0894 39.731 46.1984 38.8401 45.0994 38.8401C44.0003 38.8401 43.1094 39.731 43.1094 40.8301C43.1094 41.9291 44.0003 42.8201 45.0994 42.8201Z" fill="#231815"/>
<path d="M33.4099 42.8201C34.509 42.8201 35.3999 41.9291 35.3999 40.8301C35.3999 39.731 34.509 38.8401 33.4099 38.8401C32.3109 38.8401 31.4199 39.731 31.4199 40.8301C31.4199 41.9291 32.3109 42.8201 33.4099 42.8201Z" fill="#231815"/>
<path d="M40.7291 41.47C40.7291 42.28 40.0691 42.94 39.2591 42.94C38.4491 42.94 37.7891 42.28 37.7891 41.47" stroke="#231815" stroke-width="2" stroke-linecap="round" stroke-linejoin="round"/>
</g>
<defs>
<clipPath id="clip0_846_2281">
<rect width="36.62" height="32.67" fill="white" transform="translate(21 23)"/>
</clipPath>
</defs>
</svg>
