<svg width="78" height="78" viewBox="0 0 78 78" fill="none" xmlns="http://www.w3.org/2000/svg">
<rect width="78" height="78" fill="#D2E3ED"/>
<g clip-path="url(#clip0_846_2248)">
<path d="M30.71 21H47.43C50.58 21 53.14 23.56 53.14 26.71V51.28C53.14 54.43 50.58 56.99 47.43 56.99H30.71C27.56 56.99 25 54.43 25 51.28V26.71C25 23.56 27.56 21 30.71 21Z" fill="#F2F3F4"/>
<path d="M47.44 23C49.49 23 51.15 24.66 51.15 26.71V51.29C51.15 53.34 49.49 55 47.44 55H30.71C28.66 55 27 53.34 27 51.29V26.71C27 24.66 28.66 23 30.71 23H47.43M47.43 19H30.71C26.46 19 23 22.46 23 26.71V51.29C23 55.54 26.46 59 30.71 59H47.43C51.68 59 55.14 55.54 55.14 51.29V26.71C55.14 22.46 51.68 19 47.43 19Z" fill="#231815"/>
<path d="M43.9592 21.6899H34.1792C33.3618 21.6899 32.6992 22.3526 32.6992 23.1699C32.6992 23.9873 33.3618 24.6499 34.1792 24.6499H43.9592C44.7766 24.6499 45.4392 23.9873 45.4392 23.1699C45.4392 22.3526 44.7766 21.6899 43.9592 21.6899Z" fill="#231815"/>
<path d="M32.7302 57C28.6902 57 25.4102 53.72 25.4102 49.68V43.95C25.4102 36.42 31.5402 30.29 39.0702 30.29C46.6002 30.29 52.7302 36.42 52.7302 43.95V49.68C52.7302 53.72 49.4502 57 45.4102 57H32.7202H32.7302Z" fill="white"/>
<path d="M39.0702 32.28C45.5102 32.28 50.7302 37.5 50.7302 43.94V49.67C50.7302 52.61 48.3502 54.99 45.4102 54.99H32.7202C29.7802 54.99 27.4002 52.61 27.4002 49.67V43.94C27.4002 37.5 32.6202 32.28 39.0602 32.28M39.0602 28.28C30.4402 28.28 23.4102 35.31 23.4102 43.95V49.68C23.4102 54.82 27.5902 59 32.7302 59H45.4202C50.5602 59 54.7402 54.82 54.7402 49.68V43.95C54.7402 35.31 47.7102 28.29 39.0802 28.29L39.0602 28.28Z" fill="#231815"/>
<path d="M34.7102 40.1099C35.5221 40.1099 36.1802 39.4518 36.1802 38.6399C36.1802 37.8281 35.5221 37.1699 34.7102 37.1699C33.8984 37.1699 33.2402 37.8281 33.2402 38.6399C33.2402 39.4518 33.8984 40.1099 34.7102 40.1099Z" fill="#231815"/>
<path d="M33.5205 42.4101C34.0948 42.4101 34.5605 41.9445 34.5605 41.3701C34.5605 40.7957 34.0948 40.3301 33.5205 40.3301C32.9461 40.3301 32.4805 40.7957 32.4805 41.3701C32.4805 41.9445 32.9461 42.4101 33.5205 42.4101Z" fill="#F0CECD"/>
<path d="M44.6611 42.4101C45.2355 42.4101 45.7011 41.9445 45.7011 41.3701C45.7011 40.7957 45.2355 40.3301 44.6611 40.3301C44.0867 40.3301 43.6211 40.7957 43.6211 41.3701C43.6211 41.9445 44.0867 42.4101 44.6611 42.4101Z" fill="#F0CECD"/>
<path d="M43.6204 40.1099C44.4323 40.1099 45.0904 39.4518 45.0904 38.6399C45.0904 37.8281 44.4323 37.1699 43.6204 37.1699C42.8085 37.1699 42.1504 37.8281 42.1504 38.6399C42.1504 39.4518 42.8085 40.1099 43.6204 40.1099Z" fill="#231815"/>
<path d="M40.6392 40.1101C40.6392 40.9201 39.9792 41.5801 39.1692 41.5801C38.3592 41.5801 37.6992 40.9201 37.6992 40.1101" stroke="#231815" stroke-width="2" stroke-linecap="round" stroke-linejoin="round"/>
<g opacity="0.8">
<path d="M45.2802 54.9999H32.8602C29.6202 54.9999 26.9902 52.3699 26.9902 49.1299V43.6399H51.1402V49.1299C51.1402 52.3699 48.5102 54.9999 45.2702 54.9999H45.2802Z" fill="#F2F3F4"/>
</g>
<path d="M40.6003 50.3799H37.5503C36.7329 50.3799 36.0703 51.0425 36.0703 51.8599C36.0703 52.6773 36.7329 53.3399 37.5503 53.3399H40.6003C41.4177 53.3399 42.0803 52.6773 42.0803 51.8599C42.0803 51.0425 41.4177 50.3799 40.6003 50.3799Z" fill="#231815"/>
</g>
<defs>
<clipPath id="clip0_846_2248">
<rect width="32.15" height="40" fill="white" transform="translate(23 19)"/>
</clipPath>
</defs>
</svg>
