<svg width="78" height="78" viewBox="0 0 78 78" fill="none" xmlns="http://www.w3.org/2000/svg">
<rect width="78" height="78" fill="#EDF7F8"/>
<g clip-path="url(#clip0_846_2240)">
<path d="M39.0496 53.25C35.2796 53.25 27.9296 51.25 27.0596 43.7C26.0496 34.85 37.4096 26.63 37.8896 26.29L39.0496 25.46L40.2096 26.29C40.6896 26.64 52.0396 34.85 51.0296 43.7C50.1696 51.25 42.8096 53.25 39.0396 53.25H39.0496Z" fill="#CCE2A6"/>
<path d="M39.0501 27.92C39.0501 27.92 49.9401 35.7 49.0501 43.48C48.1601 51.26 39.0501 51.26 39.0501 51.26C39.0501 51.26 29.9401 51.26 29.0501 43.48C28.1601 35.7 39.0501 27.92 39.0501 27.92ZM39.0501 23L36.7301 24.66C35.4201 25.6 23.9501 34.09 25.0801 43.93C26.1001 52.89 34.6701 55.25 39.0501 55.25C43.4301 55.25 52.0001 52.88 53.0201 43.93C54.1501 34.09 42.6901 25.6 41.3801 24.66L39.0601 23H39.0501Z" fill="#231815"/>
<path d="M34.6009 39.3399C35.4127 39.3399 36.0709 38.6818 36.0709 37.8699C36.0709 37.058 35.4127 36.3999 34.6009 36.3999C33.789 36.3999 33.1309 37.058 33.1309 37.8699C33.1309 38.6818 33.789 39.3399 34.6009 39.3399Z" fill="#231815"/>
<path d="M43.5091 39.3399C44.3209 39.3399 44.9791 38.6818 44.9791 37.8699C44.9791 37.058 44.3209 36.3999 43.5091 36.3999C42.6972 36.3999 42.0391 37.058 42.0391 37.8699C42.0391 38.6818 42.6972 39.3399 43.5091 39.3399Z" fill="#231815"/>
<path d="M40.5201 39.3401C40.5201 40.1501 39.8601 40.8101 39.0501 40.8101C38.2401 40.8101 37.5801 40.1501 37.5801 39.3401" stroke="#231815" stroke-width="2" stroke-linecap="round" stroke-linejoin="round"/>
</g>
<defs>
<clipPath id="clip0_846_2240">
<rect width="28.1" height="32.25" fill="white" transform="translate(25 23)"/>
</clipPath>
</defs>
</svg>
